<?xml version="1.0" encoding="utf-8"?>
<!-- Generator: Adobe Illustrator 21.1.0, SVG Export Plug-In . SVG Version: 6.00 Build 0)  -->
<svg version="1.1" id="Layer_1" xmlns="http://www.w3.org/2000/svg" xmlns:xlink="http://www.w3.org/1999/xlink" x="0px" y="0px"
	 viewBox="0 0 54.6 80" style="enable-background:new 0 0 54.6 80;" xml:space="preserve">
<style type="text/css">
	.st0{fill:#B25051;}
</style>
<path class="st0" d="M33.1,40.6v-6.4h6.4c0.6,0,1-0.4,1-1v-9.7c0-0.6-0.4-1-1-1h-6.4v-6.4c0-0.6-0.4-1-1-1h-9.7c-0.6,0-1,0.4-1,1
	v6.4H15c-0.6,0-1,0.4-1,1v9.7c0,0.6,0.4,1,1,1h6.4v6.4c0,0.6,0.4,1,1,1h9.7C32.7,41.6,33.1,41.2,33.1,40.6z M31.1,33.2v6.4h-7.7
	v-6.4c0-0.6-0.4-1-1-1H16v-7.7h6.4c0.6,0,1-0.4,1-1v-6.4h7.7v6.4c0,0.6,0.4,1,1,1h6.4v7.7h-6.4C31.6,32.2,31.1,32.6,31.1,33.2z"/>
<path class="st0" d="M27.3,80c0.3,0,0.6-0.1,0.8-0.4c0.1-0.1,6.7-8.3,13.2-18.7c8.8-14.1,13.3-25.4,13.3-33.6
	C54.6,12.2,42.3,0,27.3,0S0,12.2,0,27.3c0,17.9,25.4,50.9,26.5,52.3C26.7,79.9,27,80,27.3,80L27.3,80z M2,27.3C2,13.3,13.3,2,27.3,2
	c13.9,0,25.3,11.3,25.3,25.3c0,16.9-20.9,44.5-25.3,50.1C23,71.6,2,42.8,2,27.3z"/>
</svg>
