<svg id="Layer_1" data-name="Layer 1" xmlns="http://www.w3.org/2000/svg" viewBox="0 0 1441 252.6">
  <defs>
    <style>
      .cls-1 {
        fill: #ff8d8d;
      }

      .cls-2 {
        fill: #fff;
        stroke: #353535;
        stroke-miterlimit: 10;
      }
    </style>
  </defs>
  <title>footer</title>
  <path class="cls-1" d="M.5,252.1V107.77a68.7,68.7,0,0,0,137.4,0V88.57a1.79,1.79,0,0,1,1.8-1.8h11.9a1.79,1.79,0,0,1,1.8,1.8v8.6c0,42.9,34.1,78.7,77,79.3A78.38,78.38,0,0,0,309.9,99V88.57a1.79,1.79,0,0,1,1.8-1.8h11.9a1.79,1.79,0,0,1,1.8,1.8h0c0,48.3,39.6,87.9,87.9,87.9a88.09,88.09,0,0,0,87.9-87.9h0a1.79,1.79,0,0,1,1.8-1.8h12.5a1.84,1.84,0,0,1,1.8,1.7c4.8,49.2,46.6,88.1,97,88.1a97.87,97.87,0,0,0,97-88.1,1.92,1.92,0,0,1,1.8-1.7h14.6a1.84,1.84,0,0,1,1.8,1.7,97.87,97.87,0,0,0,97,88.1c50.4,0,92.3-38.8,97-88.1a1.92,1.92,0,0,1,1.8-1.7h12.4a1.79,1.79,0,0,1,1.8,1.8h0a88.09,88.09,0,0,0,87.9,87.9c48.3,0,87.9-39.6,87.9-87.9h0a1.79,1.79,0,0,1,1.8-1.8H1129a1.79,1.79,0,0,1,1.8,1.8v9.6a78.51,78.51,0,0,0,78.7,78.3h.8c42.9-.7,77-36.4,77-79.3v-8.6a1.79,1.79,0,0,1,1.8-1.8H1301a1.79,1.79,0,0,1,1.8,1.8h0v19.2a68.75,68.75,0,0,0,68.7,68.7c37.9,0,69-30.8,69-68.7V252.1Z"/>
  <path class="cls-1" d="M1323.3,156.27a68.42,68.42,0,0,1-20.2-48.5v-21h137.4v21a68.59,68.59,0,0,1-117.2,48.5Z"/>
  <path class="cls-1" d="M1154,153.47a77.94,77.94,0,0,1-23-55.3V86.77h156.6v11.4a78.21,78.21,0,0,1-133.6,55.3Z"/>
  <path class="cls-1" d="M965.5,150.67a87.64,87.64,0,0,1-25.8-62.1v-1.8h175.8v1.8c0,48.3-39.6,87.9-87.9,87.9A87.64,87.64,0,0,1,965.5,150.67Z"/>
  <path class="cls-1" d="M757.8,147.87a96.86,96.86,0,0,1-28.3-61.1H923.8c-4,50-46.2,89.7-97.2,89.7A97.1,97.1,0,0,1,757.8,147.87Z"/>
  <path class="cls-1" d="M517.2,86.77H711.6a97.75,97.75,0,0,1-97.2,89.7C563.4,176.47,521.2,136.77,517.2,86.77Z"/>
  <path class="cls-1" d="M325.5,88.57v-1.8H501.3v1.8a88.09,88.09,0,0,1-87.9,87.9C365.1,176.47,325.5,136.87,325.5,88.57Z"/>
  <path class="cls-1" d="M153.4,98.17V86.77H310v11.4a78.3,78.3,0,1,1-156.6,0Z"/>
  <path class="cls-1" d="M.5,107.77v-21H137.9v21a68.7,68.7,0,0,1-137.4,0Z"/>
  <path class="cls-2" d="M1303.1,117.57V91.9c0-15.1,14.4-27.4,32-27.4h73.4c17.6,0,32,12.3,32,27.4v25.67c0,32.4-30.9,58.9-68.7,58.9-18.9,0-36.1-6.6-48.5-17.3S1303.1,133.77,1303.1,117.57Z"/>
  <path class="cls-2" d="M1131,109.37V66.7c0-13,12.4-23.7,27.6-23.7H1260c15.2,0,27.6,10.6,27.6,23.7v42.67c0,36.9-35.2,67.1-78.3,67.1-21.5,0-41.1-7.6-55.3-19.7S1131,127.87,1131,109.37Z"/>
  <path class="cls-2" d="M939.7,101.07V41.4c0-11,10.5-19.9,23.2-19.9h129.3c12.8,0,23.2,9,23.2,19.9v59.67c0,41.4-39.6,75.4-87.9,75.4-24.2,0-46.1-8.5-62.1-22.1S939.7,121.87,939.7,101.07Z"/>
  <path class="cls-2" d="M729.1,92.87V16.2C729.1,7.3,737.6,0,748,0H905.3c10.4,0,18.9,7.3,18.9,16.2V92.87c0,2.2-.1,4.5-.3,6.7-4,42.9-46.2,76.9-97.2,76.9-26.8,0-51.2-9.4-68.9-24.6-16-13.7-26.5-32-28.3-52.4A47.76,47.76,0,0,1,729.1,92.87Z"/>
  <path class="cls-2" d="M.5,117.57V91.9c0-15.1,14.4-27.4,32-27.4h73.4c17.6,0,32,12.3,32,27.4v25.67c0,16.2-7.7,30.9-20.2,41.6s-29.6,17.3-48.5,17.3C31.4,176.47.5,150,.5,117.57Z"/>
  <path class="cls-2" d="M153.4,109.37V66.7c0-13,12.4-23.7,27.6-23.7H282.4C297.6,43,310,53.6,310,66.7v42.67c0,18.5-8.8,35.2-23,47.4s-33.8,19.7-55.3,19.7C188.6,176.47,153.4,146.27,153.4,109.37Z"/>
  <path class="cls-2" d="M325.5,101.07V41.4c0-11,10.5-19.9,23.2-19.9H478.1c12.8,0,23.2,9,23.2,19.9v59.67c0,20.7-9.9,39.6-25.8,53.2s-37.9,22.1-62.1,22.1C365.1,176.47,325.5,142.57,325.5,101.07Z"/>
  <path class="cls-2" d="M516.9,92.87V16.2c0-8.9,8.5-16.2,18.9-16.2H693c10.4,0,18.9,7.3,18.9,16.2V92.87c0,2.2-.1,4.5-.3,6.7-1.9,20.3-12.4,38.7-28.3,52.4-17.7,15.2-42,24.6-68.9,24.6-51,0-93.2-34-97.2-76.9C517,97.37,516.9,95.07,516.9,92.87Z"/>
</svg>
