<?xml version="1.0" encoding="utf-8"?>
<!-- Generator: Adobe Illustrator 21.1.0, SVG Export Plug-In . SVG Version: 6.00 Build 0)  -->
<svg version="1.1" id="Layer_1" xmlns="http://www.w3.org/2000/svg" xmlns:xlink="http://www.w3.org/1999/xlink" x="0px" y="0px"
	 viewBox="0 0 1441 252.6" style="enable-background:new 0 0 1441 252.6;" xml:space="preserve">
<style type="text/css">
	.st0{fill:#FF8D8D;}
	.st1{fill:#FFFFFF;stroke:#353535;stroke-miterlimit:10;}
</style>
<title>footer</title>
<path class="st0" d="M0,252.1V107.8c0,37.9,30.8,68.7,68.7,68.7s68.7-30.8,68.7-68.7V88.6c0-1,0.8-1.8,1.8-1.8c0,0,0,0,0,0h11.9
	c1,0,1.8,0.8,1.8,1.8c0,0,0,0,0,0v8.6c0,42.9,34.1,78.7,77.1,79.3c43.3,0.6,78.9-34,79.6-77.2c0-0.1,0-0.1,0-0.2V88.6
	c0-1,0.8-1.8,1.8-1.8c0,0,0,0,0,0h11.9c1,0,1.8,0.8,1.8,1.8c0,0,0,0,0,0l0,0c0,48.3,39.6,87.9,88,87.9c48.5-0.1,87.9-39.4,88-87.9
	l0,0c0-1,0.8-1.8,1.8-1.8c0,0,0,0,0,0h12.5c0.9,0,1.7,0.8,1.8,1.7c4.8,49.2,46.6,88.1,97.1,88.1c50.2-0.2,92.1-38.2,97.1-88.1
	c0.1-0.9,0.9-1.6,1.8-1.7h14.6c0.9,0,1.7,0.8,1.8,1.7c5,49.9,46.9,87.9,97.1,88.1c50.4,0,92.4-38.8,97.1-88.1
	c0.1-0.9,0.9-1.6,1.8-1.7h12.4c1,0,1.8,0.8,1.8,1.8c0,0,0,0,0,0l0,0c0.1,48.5,39.4,87.8,88,87.9c48.3,0,88-39.6,88-87.9l0,0
	c0-1,0.8-1.8,1.8-1.8c0,0,0,0,0,0h11.9c1,0,1.8,0.8,1.8,1.8c0,0,0,0,0,0v9.6c0.1,43.4,35.4,78.4,78.8,78.3h0.8
	c42.9-0.7,77.1-36.4,77.1-79.3v-8.6c0-1,0.8-1.8,1.8-1.8c0,0,0,0,0,0h11.9c1,0,1.8,0.8,1.8,1.8c0,0,0,0,0,0l0,0v19.2
	c0,37.9,30.8,68.7,68.7,68.7c37.9,0,69-30.8,69-68.7v144.3H0z"/>
<path class="st0" d="M1323.3,156.3c-12.9-12.8-20.2-30.3-20.2-48.5v-21h137.4v21c0.1,37.9-30.6,68.6-68.5,68.7
	C1353.7,176.5,1336.2,169.2,1323.3,156.3L1323.3,156.3z"/>
<path class="st0" d="M1154,153.5c-14.7-14.6-23-34.5-23-55.3V86.8h156.6v11.4c0,43.2-34.9,78.2-78.1,78.3
	C1188.7,176.5,1168.7,168.2,1154,153.5z"/>
<path class="st0" d="M965.5,150.7c-16.5-16.4-25.8-38.8-25.8-62.1v-1.8h175.8v1.8c0,48.3-39.6,87.9-87.9,87.9
	C1004.3,176.5,981.9,167.2,965.5,150.7z"/>
<path class="st0" d="M757.8,147.9c-16.4-16.3-26.5-38-28.3-61.1h194.3c-4,50-46.2,89.7-97.2,89.7C800.8,176.5,776,166.2,757.8,147.9
	z"/>
<path class="st0" d="M517.2,86.8h194.4c-4.2,50.6-46.4,89.6-97.2,89.7C563.4,176.5,521.2,136.8,517.2,86.8z"/>
<path class="st0" d="M325.5,88.6v-1.8h175.8v1.8c-0.1,48.5-39.4,87.8-87.9,87.9C365.1,176.5,325.5,136.9,325.5,88.6z"/>
<path class="st0" d="M153.4,98.2V86.8H310v11.4c0,43.2-35,78.3-78.3,78.3S153.4,141.4,153.4,98.2C153.4,98.2,153.4,98.2,153.4,98.2z
	"/>
<path class="st0" d="M0.5,107.8v-21h137.4v21c0,37.9-30.8,68.7-68.7,68.7S0.5,145.7,0.5,107.8z"/>
<path class="st1" d="M1303.1,117.6V91.9c0-15.1,14.4-27.4,32-27.4h73.4c17.6,0,32,12.3,32,27.4v25.7c0,32.4-30.9,58.9-68.7,58.9
	c-18.9,0-36.1-6.6-48.5-17.3S1303.1,133.8,1303.1,117.6z"/>
<path class="st1" d="M1131,109.4V66.7c0-13,12.4-23.7,27.6-23.7H1260c15.2,0,27.6,10.6,27.6,23.7v42.7c0,36.9-35.2,67.1-78.3,67.1
	c-21.5,0-41.1-7.6-55.3-19.7S1131,127.9,1131,109.4z"/>
<path class="st1" d="M939.7,101.1V41.4c0-11,10.5-19.9,23.2-19.9h129.3c12.8,0,23.2,9,23.2,19.9v59.7c0,41.4-39.6,75.4-87.9,75.4
	c-24.2,0-46.1-8.5-62.1-22.1S939.7,121.9,939.7,101.1z"/>
<path class="st1" d="M729.1,92.9V16.2C729.1,7.3,737.6,0,748,0h157.3c10.4,0,18.9,7.3,18.9,16.2v76.7c0,2.2-0.1,4.5-0.3,6.7
	c-4,42.9-46.2,76.9-97.2,76.9c-26.8,0-51.2-9.4-68.9-24.6c-16-13.7-26.5-32-28.3-52.4C729.2,97.3,729.1,95.1,729.1,92.9z"/>
<path class="st1" d="M0.5,117.6V91.9c0-15.1,14.4-27.4,32-27.4h73.4c17.6,0,32,12.3,32,27.4v25.7c0,16.2-7.7,30.9-20.2,41.6
	s-29.6,17.3-48.5,17.3C31.4,176.5,0.5,150,0.5,117.6z"/>
<path class="st1" d="M153.4,109.4V66.7c0-13,12.4-23.7,27.6-23.7h101.4c15.2,0,27.6,10.6,27.6,23.7v42.7c0,18.5-8.8,35.2-23,47.4
	s-33.8,19.7-55.3,19.7C188.6,176.5,153.4,146.3,153.4,109.4z"/>
<path class="st1" d="M325.5,101.1V41.4c0-11,10.5-19.9,23.2-19.9h129.4c12.8,0,23.2,9,23.2,19.9v59.7c0,20.7-9.9,39.6-25.8,53.2
	s-37.9,22.1-62.1,22.1C365.1,176.5,325.5,142.6,325.5,101.1z"/>
<path class="st1" d="M516.9,92.9V16.2c0-8.9,8.5-16.2,18.9-16.2H693c10.4,0,18.9,7.3,18.9,16.2v76.7c0,2.2-0.1,4.5-0.3,6.7
	c-1.9,20.3-12.4,38.7-28.3,52.4c-17.7,15.2-42,24.6-68.9,24.6c-51,0-93.2-34-97.2-76.9C517,97.4,516.9,95.1,516.9,92.9z"/>
</svg>
