<?xml version="1.0" encoding="utf-8"?>
<!-- Generator: Adobe Illustrator 21.1.0, SVG Export Plug-In . SVG Version: 6.00 Build 0)  -->
<svg version="1.1" id="Layer_1" xmlns="http://www.w3.org/2000/svg" xmlns:xlink="http://www.w3.org/1999/xlink" x="0px" y="0px"
	 viewBox="0 0 1441 252.6" style="enable-background:new 0 0 1441 252.6;" xml:space="preserve">
<style type="text/css">
	.st0{fill:#FF8D8D;}
	.st1{fill:#FFFFFF;stroke:#353535;stroke-miterlimit:10;}
</style>
<title>header</title>
<path class="st0" d="M1440.5,0v144.3c-0.5-37.9-31.6-68.3-69.5-67.9c-37.3,0.5-67.4,30.6-67.9,67.9v19.2c0,1-0.8,1.8-1.8,1.8h-11.9
	c-1,0-1.8-0.8-1.8-1.8v-8.6c0-42.9-34.1-78.7-77-79.3c-43.4-0.6-79,34.1-79.5,77.5c0,0.3,0,0.5,0,0.8v9.6c0,1-0.8,1.8-1.8,1.8h-11.9
	c-1,0-1.8-0.8-1.8-1.8l0,0c0-48.3-39.6-87.9-87.9-87.9c-48.5,0.1-87.8,39.4-87.9,87.9l0,0c0,1-0.8,1.8-1.8,1.8l0,0h-12.5
	c-0.9,0-1.7-0.7-1.8-1.7c-4.8-49.2-46.6-88.1-97-88.1c-50.1,0.2-92,38.2-97,88.1c-0.1,0.9-0.9,1.7-1.8,1.7h-14.6
	c-0.9,0-1.7-0.7-1.8-1.7c-5-49.9-46.9-87.9-97-88.1c-50.4,0-92.3,38.8-97,88.1c-0.1,0.9-0.9,1.7-1.8,1.7h-12.4c-1,0-1.8-0.8-1.8-1.8
	l0,0c-0.1-48.5-39.4-87.8-87.9-87.9c-48.3,0-87.9,39.6-87.9,87.9l0,0c0,1-0.8,1.8-1.8,1.8H312c-1,0-1.8-0.8-1.8-1.8v-9.6
	c-0.1-43.4-35.4-78.4-78.7-78.3c-0.3,0-0.5,0-0.8,0c-42.9,0.7-77,36.4-77,79.3v8.6c0,1-0.8,1.8-1.8,1.8l0,0H140
	c-1,0-1.8-0.8-1.8-1.8l0,0v-19.2c0-37.9-30.8-68.7-68.7-68.7s-69,30.8-69,68.7V0H1440.5z"/>
<path class="st0" d="M117.7,95.8c12.9,12.8,20.2,30.3,20.2,48.5v21H0.5v-21c0-37.9,30.6-68.6,68.5-68.7
	C87.3,75.6,104.8,82.8,117.7,95.8z"/>
<path class="st0" d="M287,98.6c14.7,14.6,23,34.5,23,55.3v11.4H153.4v-11.4c-0.1-43.2,34.9-78.2,78.1-78.3
	C252.3,75.6,272.3,83.9,287,98.6z"/>
<path class="st0" d="M475.5,101.4c16.5,16.4,25.8,38.8,25.8,62.1v1.8H325.5v-1.8c0-48.3,39.6-87.9,87.9-87.9
	C436.7,75.6,459.1,84.9,475.5,101.4z"/>
<path class="st0" d="M683.2,104.2c16.4,16.3,26.5,38,28.3,61.1H517.2c4-50,46.2-89.7,97.2-89.7C640.2,75.6,665,85.9,683.2,104.2z"/>
<path class="st0" d="M923.8,165.3H729.4c4.2-50.6,46.4-89.6,97.2-89.7C877.6,75.6,919.8,115.3,923.8,165.3z"/>
<path class="st0" d="M1115.5,163.5v1.8H939.7v-1.8c0.1-48.5,39.4-87.8,87.9-87.9C1075.9,75.6,1115.5,115.2,1115.5,163.5z"/>
<path class="st0" d="M1287.6,153.9v11.4H1131v-11.4c0-43.2,35.1-78.3,78.3-78.3C1252.5,75.6,1287.6,110.7,1287.6,153.9z"/>
<path class="st0" d="M1440.5,144.3v21h-137.4v-21c0-37.9,30.8-68.7,68.7-68.7C1409.7,75.6,1440.5,106.4,1440.5,144.3z"/>
<path class="st1" d="M137.9,134.5v25.7c0,15.1-14.4,27.4-32,27.4H32.5c-17.6,0-32-12.3-32-27.4v-25.7c0-32.4,30.9-58.9,68.7-58.9
	c18.9,0,36.1,6.6,48.5,17.3S137.9,118.3,137.9,134.5z"/>
<path class="st1" d="M310,142.7v42.7c0,13-12.4,23.7-27.6,23.7H181c-15.2,0-27.6-10.6-27.6-23.7v-42.7c0-36.9,35.2-67.1,78.3-67.1
	c21.5,0,41.1,7.6,55.3,19.7S310,124.2,310,142.7z"/>
<path class="st1" d="M501.3,151v59.7c0,11-10.5,19.9-23.2,19.9H348.8c-12.8,0-23.2-9-23.2-19.9V151c0-41.4,39.6-75.4,87.9-75.4
	c24.2,0,46.1,8.5,62.1,22.1S501.3,130.2,501.3,151z"/>
<path class="st1" d="M711.9,159.2v76.7c0,8.9-8.5,16.2-18.9,16.2H535.7c-10.4,0-18.9-7.3-18.9-16.2v-76.7c0-2.2,0.1-4.5,0.3-6.7
	c4-42.9,46.2-76.9,97.2-76.9c26.8,0,51.2,9.4,68.9,24.6c16,13.7,26.5,32,28.3,52.4C711.8,154.7,711.9,157,711.9,159.2z"/>
<path class="st1" d="M1440.5,134.5v25.7c0,15.1-14.4,27.4-32,27.4h-73.4c-17.6,0-32-12.3-32-27.4v-25.7c0-16.2,7.7-30.9,20.2-41.6
	s29.6-17.3,48.5-17.3C1409.6,75.6,1440.5,102.1,1440.5,134.5z"/>
<path class="st1" d="M1287.6,142.7v42.7c0,13-12.4,23.7-27.6,23.7h-101.4c-15.2,0-27.6-10.6-27.6-23.7v-42.7
	c0-18.5,8.8-35.2,23-47.4s33.8-19.7,55.3-19.7C1252.4,75.6,1287.6,105.8,1287.6,142.7z"/>
<path class="st1" d="M1115.5,151v59.7c0,11-10.5,19.9-23.2,19.9H962.9c-12.8,0-23.2-9-23.2-19.9V151c0-20.7,9.9-39.6,25.8-53.2
	s37.9-22.1,62.1-22.1C1075.9,75.6,1115.5,109.5,1115.5,151z"/>
<path class="st1" d="M924.1,159.2v76.7c0,8.9-8.5,16.2-18.9,16.2H748c-10.4,0-18.9-7.3-18.9-16.2v-76.7c0-2.2,0.1-4.5,0.3-6.7
	c1.9-20.3,12.4-38.7,28.3-52.4c17.7-15.2,42-24.6,68.9-24.6c51,0,93.2,34,97.2,76.9C924,154.7,924.1,157,924.1,159.2z"/>
</svg>
