<?xml version="1.0" encoding="utf-8"?>
<!-- Generator: Adobe Illustrator 21.1.0, SVG Export Plug-In . SVG Version: 6.00 Build 0)  -->
<svg version="1.1" id="Layer_1" xmlns="http://www.w3.org/2000/svg" xmlns:xlink="http://www.w3.org/1999/xlink" x="0px" y="0px"
	 viewBox="0 0 52.7 80" style="enable-background:new 0 0 52.7 80;" xml:space="preserve">
<style type="text/css">
	.st0{fill:#B25051;}
</style>
<path class="st0" d="M25.8,0H1C0.4,0,0,0.4,0,1v6l0,0l0,0l1.9,54.3C2,63.9,4,65.8,6.5,65.8h0.3L7.7,79c0,0.5,0.5,0.9,1,0.9H18
	c0.5,0,1-0.4,1-0.9l1-13.2h0.3c2.5,0,4.5-2,4.6-4.5L26.8,7l0,0l0,0V1C26.8,0.4,26.4,0,25.8,0z M24.8,2v4H2V2H24.8z M17.2,78H9.7
	L8.8,65.8H18L17.2,78z M23,61.3c0,1.4-1.2,2.5-2.6,2.5h-1.3H7.8H6.5c-1.4,0-2.6-1.1-2.6-2.5L2,8h22.8L23,61.3z"/>
<path class="st0" d="M39.8,75.5V25.8h11.8c0.6,0,1-0.4,1-1V3.2c0-0.6-0.4-1-1-1h-12C39.2,0.9,37.9,0,36.5,0h-2.3
	c-1.9,0-3.4,1.5-3.4,3.4v72.1c0,2.5,2,4.5,4.5,4.5S39.8,78,39.8,75.5z M50.7,15.1H39.8v-2.2h10.8v2.2H50.7z M39.8,17.1h10.8v2.2
	H39.8V17.1z M50.7,10.9H39.8V8.7h10.8v2.2H50.7z M39.8,23.8v-2.5h10.8v2.5H39.8z M50.7,6.7H39.8V4.2h10.8v2.5H50.7z M32.8,75.5V3.4
	c0-0.8,0.6-1.4,1.4-1.4h2.3c0.8,0,1.4,0.6,1.4,1.4v72.1c0,1.4-1.1,2.5-2.5,2.5S32.8,76.9,32.8,75.5z"/>
</svg>
