<?xml version="1.0" encoding="utf-8"?>
<!-- Generator: Adobe Illustrator 21.1.0, SVG Export Plug-In . SVG Version: 6.00 Build 0)  -->
<svg version="1.1" id="Layer_1" xmlns="http://www.w3.org/2000/svg" xmlns:xlink="http://www.w3.org/1999/xlink" x="0px" y="0px"
	 viewBox="0 0 54.4 80" style="enable-background:new 0 0 54.4 80;" xml:space="preserve">
<style type="text/css">
	.st0{fill:#B25051;}
</style>
<path class="st0" d="M34.9,29.3v46.3c0,2.5,2,4.5,4.5,4.5s4.5-2,4.5-4.5V29.3c6.1-2,10.5-7.6,10.5-14.3c0-8.2-6.7-15-15-15
	s-15,6.7-15,15C24.5,21.7,28.9,27.3,34.9,29.3z M41.9,75.5c0,1.4-1.1,2.5-2.5,2.5s-2.5-1.1-2.5-2.5V29.7c0.8,0.1,1.6,0.2,2.5,0.2
	s1.7-0.1,2.5-0.2V75.5z M39.4,2c7.1,0,13,5.8,13,13s-5.8,13-13,13s-13-5.8-13-13S32.3,2,39.4,2z"/>
<path class="st0" d="M35.1,23.5c0.2,0.2,0.5,0.3,0.7,0.3s0.5-0.1,0.7-0.3c0.4-0.4,0.4-1,0-1.4l-3.8-3.8c-0.4-0.4-1-0.4-1.4,0
	s-0.4,1,0,1.4L35.1,23.5z"/>
<path class="st0" d="M40.3,23.5c0.2,0.2,0.5,0.3,0.7,0.3s0.5-0.1,0.7-0.3c0.4-0.4,0.4-1,0-1.4L33,13.3c-0.4-0.4-1-0.4-1.4,0
	s-0.4,1,0,1.4L40.3,23.5z"/>
<path class="st0" d="M5.9,21.3c2.6,1.4,4.3,4,4.4,6.8c-2,0.5-3.4,2.2-3.4,4.4v43.1c0,2.5,2,4.5,4.5,4.5s4.5-2,4.5-4.5V32.5
	c0-2.2-1.5-4-3.6-4.4c-0.1-3.5-2.1-6.8-5.4-8.5c-3.1-1.7-5-5-4.9-8.6c0.2-4.9,4.3-8.9,9.1-9c3.4-0.1,6.6,1.8,8.3,4.8
	c0.3,0.5,0.9,0.7,1.4,0.4s0.7-0.9,0.4-1.4c-2-3.7-5.9-5.9-10.1-5.8C5.2,0.1,0.2,5,0,10.9C-0.2,15.2,2.1,19.2,5.9,21.3z M13.9,32.5
	v43.1c0,1.4-1.1,2.5-2.5,2.5S8.9,77,8.9,75.6V32.5c0-1.4,1.1-2.5,2.5-2.5S13.9,31.1,13.9,32.5z"/>
</svg>
